<svg width="32" height="32" viewBox="0 0 32 32" fill="none" xmlns="http://www.w3.org/2000/svg">
<g clip-path="url(#clip0_214_59)">
<mask id="mask0_214_59" style="mask-type:luminance" maskUnits="userSpaceOnUse" x="0" y="0" width="32" height="32">
<path d="M32 0H0V32H32V0Z" fill="white"/>
</mask>
<g mask="url(#mask0_214_59)">
<path d="M24.6249 4.14783C24.601 4.13985 24.3616 3.9643 24.0983 3.74886C23.8349 3.53342 23.46 3.2701 23.2844 3.17435C23.1009 3.07063 22.9572 2.97487 22.9732 2.95891C23.045 2.8871 21.146 2.02534 20.2762 1.74607C16.3744 0.461405 12.3528 1.06783 8.81802 3.48554C8.09988 3.98026 6.15295 5.89528 5.84176 6.41393C5.77792 6.52564 5.58642 6.82886 5.41886 7.10814C3.48787 10.1403 2.95327 14.3294 4.06237 17.7205C4.55709 19.2047 5.38694 20.7526 6.36041 21.9655C6.57585 22.2288 8.53076 24.2316 10.7011 26.402L14.6508 30.3517L18.1937 31.0539L21.7444 31.748L21.6647 31.2534C21.6168 30.9821 21.3136 29.3543 20.9784 27.6468L20.38 24.5428L16.5499 20.7127C14.4434 18.6062 12.696 16.9067 12.664 16.9386C12.6241 16.9784 12.5922 17.2179 12.5762 17.4732C12.5603 17.7285 12.5124 18.1594 12.4805 18.4148C12.4485 18.686 12.3449 19.5558 12.2571 20.3616C12.1533 21.1676 12.0656 21.8459 12.0417 21.8698C11.9938 21.9176 11.2916 21.5027 10.8527 21.1756C8.53874 19.468 7.23015 16.8668 7.21419 13.9623C7.19823 11.9995 7.64507 10.4674 8.69833 8.85559C9.12123 8.20927 10.5974 6.60544 10.8208 6.55756C10.8687 6.5416 11.0761 6.41393 11.2677 6.27031C12.3848 5.45642 14.1881 4.88192 15.8557 4.8101C17.6192 4.73829 19.0953 5.08139 20.7231 5.95912C21.896 6.58947 23.4041 8.01777 24.0584 9.13487C25.0319 10.7786 25.5026 13.0048 25.2952 14.9358C25.1515 16.3242 24.5451 17.9998 23.8748 18.9094C23.7313 19.101 23.5876 19.3084 23.5477 19.3962C23.444 19.6116 22.2392 20.8005 21.8162 21.1117C21.4332 21.383 20.4199 22.0134 20.1485 22.1251C20.0289 22.181 20.1485 22.3326 20.6672 22.8671C21.2497 23.4496 21.3455 23.6092 21.4651 24.1119C21.529 24.4311 21.5849 24.7263 21.5769 24.7822C21.5529 24.9179 21.7284 25.4445 21.7923 25.4445C21.8561 25.4445 23.2525 24.6226 23.7393 24.3115C24.3936 23.8805 26.1649 22.0932 26.6995 21.3351C30.2503 16.2364 29.7715 9.51787 25.5426 5.06544C25.0637 4.55477 24.6489 4.13985 24.6249 4.14783Z" fill="#027BE3"/>
<path d="M15.4285 8.80005H14.8571C14.4784 8.80005 14.1714 9.10705 14.1714 9.48576V13.4858C14.1714 13.8645 14.4784 14.1715 14.8571 14.1715H15.4285C15.8072 14.1715 16.1142 13.8645 16.1142 13.4858V9.48576C16.1142 9.10705 15.8072 8.80005 15.4285 8.80005Z" fill="#027BE3"/>
<path d="M21.1429 8.80005H20.5715C20.1927 8.80005 19.8857 9.10705 19.8857 9.48576V13.4858C19.8857 13.8645 20.1927 14.1715 20.5715 14.1715H21.1429C21.5216 14.1715 21.8286 13.8645 21.8286 13.4858V9.48576C21.8286 9.10705 21.5216 8.80005 21.1429 8.80005Z" fill="#027BE3"/>
</g>
</g>
<defs>
<clipPath id="clip0_214_59">
<rect width="32" height="32" fill="white"/>
</clipPath>
</defs>
</svg>
