<svg width="837" height="338" viewBox="0 0 837 338" fill="none" xmlns="http://www.w3.org/2000/svg">
<path d="M15.375 222.906V162.719H1.78125V143.406H15.375V112.469H37.9688V143.406H69.0938V162.719H37.9688V220.656C37.9688 226.781 39.2188 231 41.7188 233.312C44.2188 235.625 47.5938 236.781 51.8438 236.781C54.4062 236.781 57.375 236.5 60.75 235.938C64 235.375 66.7812 234.625 69.0938 233.688V253.469C66.4062 254.281 63.1875 254.875 59.4375 255.25C55.1875 255.688 52.125 255.906 50.25 255.906C37.5 255.906 28.5 253.062 23.25 247.375C18 241.625 15.375 233.469 15.375 222.906ZM144.281 165.531C142.969 165.219 140.938 164.812 138.188 164.312C136.125 163.938 133.719 163.75 130.969 163.75C126.156 163.875 121.75 165.094 117.75 167.406C113.812 169.656 110.219 173.25 106.969 178.188V253H84.375V143.312H106.969V152.5C111.156 148.812 115.406 146.062 119.719 144.25C124.094 142.438 128.344 141.531 132.469 141.531C134.656 141.531 136.938 141.656 139.312 141.906C141.188 142.094 142.844 142.406 144.281 142.844V165.531ZM159.938 168.812V146.688C164.938 145.188 170.375 143.938 176.25 142.938C181.875 142 187.625 141.531 193.5 141.531C209.625 141.531 222.125 144.438 231 150.25C239.875 156.062 244.312 165.656 244.312 179.031V253H221.812V245.969C218.625 248.906 213.562 251.312 206.625 253.188C199.75 255.062 192.719 256 185.531 256C175.969 256 168 253 161.625 247C155.375 241.125 152.25 232.969 152.25 222.531V222.062C152.25 210.812 155.906 202.188 163.219 196.188C170.531 190.188 180.812 185.781 194.062 182.969C197.188 182.281 202 181.5 208.5 180.625C214 179.875 218.156 179.5 220.969 179.5H221.812V177.156C221.812 172.656 219.75 168.812 215.625 165.625C211.5 162.438 204.125 160.844 193.5 160.844C187.188 160.844 180.75 161.719 174.188 163.469C167.5 165.281 162.75 167.062 159.938 168.812ZM221.812 227.5V195.531C217.5 196.094 213.438 196.656 209.625 197.219C205.875 197.781 201.594 198.625 196.781 199.75C188.656 201.812 182.938 204.688 179.625 208.375C176.438 211.938 174.844 215.969 174.844 220.469V220.844V221.406C174.844 227.594 176.344 231.844 179.344 234.156C182.406 236.594 185.938 237.812 189.938 237.812C195.188 237.812 201.312 236.625 208.312 234.25C215.125 231.938 219.625 229.688 221.812 227.5Z" fill="#027BE3"/>
<g clip-path="url(#clip0_280_3)">
<mask id="mask0_280_3" style="mask-type:luminance" maskUnits="userSpaceOnUse" x="254" y="17" width="304" height="304">
<path d="M558 17H254V321H558V17Z" fill="white"/>
</mask>
<g mask="url(#mask0_280_3)">
<path d="M487.935 56.4039C487.709 56.3282 485.434 54.6604 482.932 52.6137C480.431 50.567 476.869 48.0655 475.201 47.1559C473.457 46.1705 472.093 45.2608 472.245 45.1093C472.927 44.427 454.886 36.2403 446.623 33.5872C409.556 21.3829 371.35 27.1439 337.77 50.1122C330.948 54.8121 312.452 73.0047 309.496 77.9319C308.889 78.9932 307.07 81.8737 305.478 84.5269C287.134 113.332 282.055 153.129 292.592 185.344C297.291 199.445 305.175 214.149 314.423 225.672C316.47 228.174 335.041 247.2 355.66 267.818L393.182 305.341L426.839 312.011L460.571 318.606L459.813 313.907C459.358 311.33 456.478 295.866 453.294 279.644L447.609 250.156L411.223 213.771C391.211 193.759 374.611 177.613 374.307 177.916C373.928 178.295 373.625 180.569 373.473 182.995C373.322 185.42 372.867 189.513 372.564 191.94C372.26 194.516 371.275 202.78 370.442 210.435C369.456 218.092 368.622 224.535 368.395 224.762C367.94 225.217 361.269 221.275 357.1 218.168C335.117 201.946 322.685 177.234 322.534 149.642C322.382 130.995 326.627 116.44 336.633 101.128C340.651 94.9876 354.674 79.7512 356.797 79.2964C357.252 79.1448 359.222 77.9319 361.042 76.5675C371.654 68.8356 388.786 63.3778 404.629 62.6955C421.381 62.0133 435.404 65.2728 450.868 73.6112C462.011 79.5996 476.338 93.1684 482.554 103.781C491.802 119.396 496.274 140.546 494.303 158.89C492.938 172.079 487.178 187.998 480.81 196.639C479.446 198.459 478.082 200.429 477.703 201.263C476.717 203.31 465.271 214.604 461.253 217.561C457.615 220.138 447.988 226.127 445.41 227.188C444.273 227.719 445.41 229.159 450.337 234.237C455.871 239.771 456.781 241.287 457.918 246.063C458.525 249.095 459.055 251.9 458.979 252.431C458.751 253.719 460.419 258.722 461.026 258.722C461.632 258.722 474.898 250.914 479.522 247.959C485.738 243.864 502.565 226.885 507.644 219.683C541.377 171.245 536.828 107.419 496.654 65.1212C492.105 60.2698 488.163 56.3282 487.935 56.4039Z" fill="#027BE3"/>
<path d="M400.571 100.6H395.143C391.545 100.6 388.628 103.517 388.628 107.114V145.114C388.628 148.712 391.545 151.629 395.143 151.629H400.571C404.169 151.629 407.086 148.712 407.086 145.114V107.114C407.086 103.517 404.169 100.6 400.571 100.6Z" fill="#027BE3"/>
<path d="M454.857 100.6H449.428C445.831 100.6 442.914 103.517 442.914 107.114V145.114C442.914 148.712 445.831 151.629 449.428 151.629H454.857C458.455 151.629 461.371 148.712 461.371 145.114V107.114C461.371 103.517 458.455 100.6 454.857 100.6Z" fill="#027BE3"/>
</g>
</g>
<path d="M596.719 128.219H571.5V105.719H596.719V128.219ZM595.219 253H572.625V140.969H595.219V253ZM711.094 181.469V253H688.688V180.906C688.688 174.469 686.844 169.5 683.156 166C679.531 162.562 674.875 160.844 669.188 160.844C663.875 160.969 658.938 162.594 654.375 165.719C649.75 168.906 645.844 172.906 642.656 177.719V253H620.156V140.969H642.656V154.469C645.906 150.906 650.125 147.844 655.312 145.281C660.312 142.781 665.938 141.531 672.188 141.531C684.438 141.531 694 145 700.875 151.938C707.688 158.812 711.094 168.656 711.094 181.469ZM804.469 240.906C801.281 243.531 797 245.625 791.625 247.188C786.25 248.75 781.938 249.531 778.688 249.531H778.125C763.875 249.531 752.25 245.125 743.25 236.312C734.188 227.438 729.656 214.094 729.656 196.281C729.656 179.719 734.312 166.438 743.625 156.438C752.812 146.625 764.375 141.656 778.312 141.531C782.812 141.531 788.125 142.375 794.25 144.062C800.25 145.75 804.562 147.844 807.188 150.344L807.562 144.438H826.969V249.438C826.969 263.125 822.531 273.062 813.656 279.25C804.844 285.375 792.312 288.438 776.062 288.438C770.875 288.438 764.875 288 758.062 287.125C751.125 286.25 745.281 285.156 740.531 283.844V261.906C743.156 263.281 748.062 264.875 755.25 266.688C762 268.375 768.5 269.219 774.75 269.219C785 269.219 792.5 267.594 797.25 264.344C802.062 261.031 804.469 257.219 804.469 252.906V240.906ZM752.25 197.031V197.688C752.25 209.625 754.844 218.375 760.031 223.938C765.219 229.5 771.906 232.281 780.094 232.281C784.406 232.281 789.062 231.469 794.062 229.844C798.938 228.281 802.406 226.312 804.469 223.938V168.812C801.531 166.5 797.781 164.625 793.219 163.188C788.531 161.75 783.656 160.969 778.594 160.844C770.094 160.906 763.562 164.125 759 170.5C754.5 176.75 752.25 185.375 752.25 196.375V197.031Z" fill="#027BE3"/>
<defs>
<clipPath id="clip0_280_3">
<rect width="304" height="304" fill="white" transform="translate(254 17)"/>
</clipPath>
</defs>
</svg>
